<?xml version="1.0" encoding="UTF-8" standalone="no"?>
<svg xmlns:rdf="http://www.w3.org/1999/02/22-rdf-syntax-ns#" xmlns="http://www.w3.org/2000/svg" height="197.82" width="492.95" version="1.1" y="0" x="0" xmlns:cc="http://creativecommons.org/ns#" xmlns:dc="http://purl.org/dc/elements/1.1/" viewBox="0 0 492.94998 197.81929">
<g transform="translate(-3.525 -1.092)">
<g fill="#263068">
<path d="m59.828 62.796h6.741v-14.519c0-1.815-1.556-3.37-3.37-3.37-1.815 0-3.371 1.555-3.371 3.37v14.519z"/>
<path d="m45.828 62.796h6.741v-14.519c0-1.815-1.556-3.37-3.37-3.37-1.815 0-3.371 1.555-3.371 3.37v14.519z"/>
<path d="m73.828 62.796h6.741v-14.519c0-1.815-1.555-3.37-3.37-3.37s-3.371 1.555-3.371 3.37v14.519z"/>
<path d="m64.754 9.388c4.408 0.778 5.963 4.667 5.963 7.259v5.704h4.148v3.111c10.63 4.926 18.149 16.075 18.149 27.482v0.259 9.852h24.37v-9.852c-0.51-32.148-23.329-51.593-53.404-52.111l0.778 8.296z"/>
<path d="m60.347 16.647v5.704h5.963v-5.704c0-1.555-1.297-2.851-2.852-2.851-1.815-0.26-3.111 1.296-3.111 2.851"/>
<path d="m67.606 78.611c-25.148-6.482-34.741-11.926-34.741-28 0-11.408 7.778-21.26 18.408-25.667v-2.593h4.148v-5.444c0-2.852 1.815-6.741 6.222-7.26l0.778-8.296c-30.334 0-56.001 21-54.704 49.26 1.296 31.63 36.296 40.704 54.963 44.593 14.778 3.111 50.297 11.407 59.112 36.556-0.26 0 3.111-41.482-54.186-53.149"/>
<path d="m59.31 122.68c25.407 7.778 31.889 17.112 31.889 30.593 0 20.482-15.815 28.778-35.778 28.778-18.926 0-35.26-8.815-46.149-20.222l-4.148 8.296c8.037 15.037 30.593 28.778 55.482 28.778 32.408 0.259 59.889-14.778 59.889-45.111 0-32.408-35.518-45.371-55.222-49.519-15.556-3.36-54.445-13.733-61.445-35.511 0 0-7.778 37.852 55.482 53.926"/>
<path d="m158.4 114.56s4.408 4.148 10.112 4.148c3.111 0 5.703-1.555 5.703-4.667 0-7-18.926-5.703-18.926-17.629 0-6.482 5.704-11.149 13.482-11.149s11.926 4.149 11.926 4.149l-3.111 5.703s-3.889-3.37-8.815-3.37c-3.371 0-5.963 1.815-5.963 4.667 0 6.74 18.926 5.185 18.926 17.37 0 6.222-4.926 11.148-13.222 11.148-8.815 0-13.741-5.185-13.741-5.185l3.629-5.185z"/>
<path d="m212.32 118.71c7.259 0 13.222-5.963 13.222-13.741 0-7.518-5.963-13.222-13.222-13.222-7.26 0-13.223 5.704-13.223 13.222 0 8.037 5.704 13.741 13.223 13.741m0-33.185c11.666 0 20.741 8.555 20.741 19.704 0 11.407-8.815 20.222-20.741 20.222-11.667 0-20.741-8.815-20.741-20.222 0-11.149 8.815-19.704 20.741-19.704"/>
<path d="m258.47 104.19c3.889 0 6.222-2.333 6.222-5.962 0-3.63-1.555-5.964-7.259-5.964h-5.444v11.926h6.481zm-13.741-18.148h12.963c4.408 0 6.223 0.259 8.038 1.037 3.888 1.815 6.481 5.445 6.481 10.63 0 4.667-2.593 8.815-6.741 10.63 0 0 0.519 0.518 1.297 1.814l8.296 14.26h-8.037l-8.037-14.26h-7v14.26h-7.26v-38.371z"/>
<path d="m300.47 118.45c3.629 0 5.703-2.333 5.703-5.704 0-3.111-2.074-5.444-5.703-5.444h-7.778v11.148h7.778zm-0.778-16.593c3.111 0 4.926-2.074 4.926-4.926s-1.815-4.667-5.186-4.667h-7v9.593h7.26zm-14.26-15.815h14.26c7.259 0 12.444 3.63 12.444 9.852 0 3.63-1.814 6.741-4.926 8.296 4.408 1.297 6.482 5.186 6.482 9.075 0 7.777-6.482 11.148-13.741 11.148h-14.519v-38.371z"/>
<path d="m343.77 118.71c7.26 0 13.223-5.963 13.223-13.741 0-7.518-5.963-13.222-13.223-13.222-7.259 0-13.222 5.704-13.222 13.222 0 8.037 5.963 13.741 13.222 13.741m0-33.185c11.667 0 20.741 8.555 20.741 19.704 0 11.407-8.815 20.222-20.741 20.222-11.667 0-20.741-8.815-20.741-20.222 0-11.149 9.074-19.704 20.741-19.704"/>
<path d="m376.96 86.042h7.259l15.296 22.297c1.556 2.333 3.371 5.963 3.371 5.963s-0.519-3.63-0.519-5.963v-22.297h7.26v38.371h-7.26l-15.296-22.037c-1.556-2.334-3.37-5.963-3.37-5.963s0.518 3.629 0.518 5.963v22.037h-7.259v-38.371z"/>
<path d="m424.14 86.042h7.26l15.296 22.297c1.556 2.333 3.37 5.963 3.37 5.963s-0.518-3.63-0.518-5.963v-22.297h7.259v38.371h-7.259l-15.296-22.037c-1.556-2.334-3.371-5.963-3.371-5.963s0.519 3.629 0.519 5.963v22.037h-7.26v-38.371z"/>
<path d="m471.33 86.042v38.63h24.889v-6.222h-17.63v-10.371h13.482v-5.963h-13.482v-10.111h16.852v-5.963z"/>
</g>
<g fill="#ac312f">
<path d="m376.51 31.748c-3.006-3.037-7.323-4.869-11.775-4.869-8.168 0-14.878 6.168-14.878 14.628 0 9.044 6.272 15.9 14.441 15.9 8.689 0 12.659-5.591 12.659-5.591l4.554 5.626c-3.957 4.409-9.771 7.112-16.776 7.112-13.127 0-22.963-9.919-22.963-22.755 0-12.544 9.836-22.171 22.963-22.171 10.877 0 15.564 6.001 15.564 6.001z"/>
<path d="m268.86 57.254c8.168 0 14.866-4.75 14.866-15.747 0-8.46-6.71-14.131-14.878-14.131-3.276 0-6.113 0.003-6.113 0.003l-0.063 29.937s2.563-0.062 6.176-0.062zm-0.012-36.879c13.127 0 23.088 8.88 23.088 21.424 0 14.705-9.669 22.008-23.088 22.008h-14.05v-43.432h14.05z"/>
<path d="m416.62 20.503h8.168l17.212 25.089c1.751 2.625 3.793 6.709 3.793 6.709s-0.583-4.084-0.583-6.709v-25.089h8.168v43.176h-8.168l-17.212-24.797c-1.751-2.626-3.793-6.71-3.793-6.71s0.583 4.084 0.583 6.71v24.797h-8.168v-43.176z"/>
<path d="m305.21 20.357v43.468h28.006v-7.002h-19.838v-11.669h15.17v-6.71h-15.17v-11.377h18.962v-6.71z"/>
<path d="m214.21 20.357v43.468h28.006v-7.002h-19.838v-11.669h15.17v-6.71h-15.17v-11.377h18.962v-6.71z"/>
<path d="m468.21 20.357v43.468h28.006v-7.002h-19.838v-11.669h15.17v-6.71h-15.17v-11.377h18.963v-6.71z"/>
</g>
<g fill="#263068">
<path d="m155.03 141.52h7.259v24.889c0 5.185 3.63 8.037 9.074 8.037 5.445 0 9.075-2.852 9.075-8.296v-24.889h7.259v24.889c0 8.815-6.482 14.519-16.334 14.519s-16.333-5.963-16.333-14.519v-24.63z"/>
<path d="m199.88 141.78h7.26l15.296 22.297c1.555 2.333 3.37 5.963 3.37 5.963s-0.518-3.63-0.518-5.963v-22.297h7.259v38.371h-7.259l-15.297-22.037c-1.555-2.333-3.37-5.963-3.37-5.963s0.519 3.63 0.519 5.963v22.037h-7.26v-38.371z"/>
<path d="m245.51 180.15h7.26v-38.371h-7.26z"/>
<path d="m260.81 141.78h7.777l8.815 25.149c0.778 2.333 1.556 5.703 1.556 5.703h0.259s0.778-3.37 1.556-5.703l8.815-25.149h7.777l-14.518 38.371h-7.259l-14.778-38.371z"/>
<path d="m305.14 141.78h23.852v5.963h-16.592v10.112h13.481v5.963h-13.481v10.37h17.629v6.222h-24.889z"/>
<path d="m354.14 159.93c3.889 0 6.222-2.334 6.222-5.963 0-3.63-1.556-5.963-7.259-5.963h-5.445v11.926h6.482zm-13.741-18.149h12.963c4.407 0 6.222 0.26 8.037 1.037 3.889 1.815 6.482 5.445 6.482 10.63 0 4.667-2.593 8.815-6.741 10.63 0 0 0.518 0.518 1.296 1.815l8.296 14.259h-8.037l-8.037-14.259h-7v14.259h-7.259v-38.371z"/>
<path d="m381.1 170.56s4.407 4.149 10.111 4.149c3.111 0 5.704-1.556 5.704-4.667 0-7-18.926-5.704-18.926-17.63 0-6.481 5.704-11.148 13.481-11.148 7.778 0 11.926 4.148 11.926 4.148l-3.111 5.704s-3.889-3.371-8.815-3.371c-3.37 0-5.963 1.815-5.963 4.667 0 6.741 18.926 5.185 18.926 17.371 0 6.222-4.926 11.148-13.222 11.148-8.815 0-13.741-5.185-13.741-5.185l3.63-5.186z"/>
<path d="m414.29 180.15h7.26v-38.371h-7.26z"/>
<path d="m442.81 147.75h-12.963v-5.963h33.445v5.963h-13.223v32.667h-7.259z"/>
<path d="m471.59 141.78v38.371h24.889v-5.963h-17.63v-10.37h13.482v-5.963h-13.482v-10.112h16.593v-5.963h-23.852zm13.741-9.852-4.407 7.26h5.703l5.963-7.26h-7.259z"/>
</g>
<g fill="#ac312f">
<path d="m393.62 20.503h8.168v43.176h-8.168v-43.176z"/>
<path d="m166.6 20.503 10.652 27.673 10.651-27.673h9.168l3.4 43.176h-8.168l-2.389-30.331-9.378 23.36h-6.569l-9.378-23.36-2.389 30.331h-8.168l3.4-43.176h9.168z"/>
<path d="m229.68 9.234h7.813l-6.127 8.431h-6.576l4.89-8.431z"/>
</g>
</g>
</svg>
